<?xml version="1.0" ?><svg viewBox="0 0 100 100" xmlns="http://www.w3.org/2000/svg"><title/><g data-name="Calque 2" id="Calque_2"><path d="M86.18,82.05a1.09,1.09,0,0,0,0-.25s0-.07,0-.11a2.85,2.85,0,0,0,0-.29.11.11,0,0,1,0-.05,1.2,1.2,0,0,0-.13-.33,0,0,0,0,0,0,0l-35-65a1.5,1.5,0,0,0-2.64,0l-35,65a0,0,0,0,1,0,0,1.18,1.18,0,0,0-.12.33.07.07,0,0,0,0,.05,1.43,1.43,0,0,0,0,.29v.11a2.17,2.17,0,0,0,0,.25s0,.06,0,.09a1.3,1.3,0,0,0,.14.32h0l0,0,.13.18s0,0,0,0l.11.09a.86.86,0,0,0,.18.14l.11.06a1,1,0,0,0,.22.09l.11,0a1.34,1.34,0,0,0,.35,0h70a1.32,1.32,0,0,0,.34,0l.11,0a.85.85,0,0,0,.22-.09l.12-.06.18-.14.1-.09s0,0,0,0l.13-.18,0,0h0a1.3,1.3,0,0,0,.14-.32A.29.29,0,0,0,86.18,82.05ZM23.26,80.2H18.61q2.45-2.27,4.65-4.49Zm3-7.61c12.23-13.05,18.72-24.65,22-32V80.2h-22Zm25-32C54.49,48,61,59.61,73.31,72.71V80.2H51.23Zm25.08,35.2c1.44,1.45,3,2.91,4.54,4.38H76.31ZM49.73,19.87,79,74.27c-1-1-2-2-2.87-2.93a1.48,1.48,0,0,0-.6-.64C55.76,49.56,51.24,32.05,51.19,31.85l0-.08a.36.36,0,0,0,0-.11.14.14,0,0,0,0-.07.31.31,0,0,1-.05-.1L51,31.4l0-.06-.06-.08-.07-.09-.06-.05-.07-.07L50.6,31l-.07,0-.09-.05-.09-.05-.08,0-.1,0s-.05,0-.08,0h0l-.07,0h-.63l-.07,0-.11,0-.08,0-.09.05-.09.05-.07,0-.08.07-.08.07s0,0-.05.05l-.07.08-.07.09,0,.06a.41.41,0,0,0,0,.09l-.05.1,0,.07a.36.36,0,0,0,0,.11l0,.08c-.05.21-5.08,19.72-27.83,42.42Z"/></g></svg>