<?xml version="1.0" ?><!DOCTYPE svg  PUBLIC '-//W3C//DTD SVG 1.1//EN'  'http://www.w3.org/Graphics/SVG/1.1/DTD/svg11.dtd'><svg enable-background="new 0 0 24 24" height="24px" id="Layer_1" version="1.1" viewBox="0 0 24 24" width="24px" xml:space="preserve" xmlns="http://www.w3.org/2000/svg" xmlns:xlink="http://www.w3.org/1999/xlink"><g><path d="M17,0H7C4.8,0,3,1.8,3,4v15c0,0.6,0.4,1,1,1h2l-1.9,3.3C4,23.5,4,23.7,4.2,23.9c0.3,0.2,0.6,0,0.7-0.2L7,20h1l-1.9,3.3   C6,23.5,6,23.7,6.2,23.9c0.3,0.2,0.6,0,0.7-0.2L9,20h6l2.1,3.6c0.1,0.2,0.4,0.4,0.7,0.2c0.2-0.2,0.2-0.4,0.1-0.6L16,20h1l2.1,3.6   c0.1,0.2,0.4,0.4,0.7,0.2c0.2-0.2,0.2-0.4,0.1-0.6L18,20h2c0.6,0,1-0.4,1-1V4C21,1.8,19.2,0,17,0z M19,18H5V4c0-1.1,0.9-2,2-2h10   c1.1,0,2,0.9,2,2V18z"/><path d="M17,3H7C6.4,3,6,3.4,6,4v8h12V4C18,3.4,17.6,3,17,3z M17,11H7V4h10V11z"/><path d="M8,13c-1.1,0-2,0.9-2,2s0.9,2,2,2s2-0.9,2-2S9.1,13,8,13z M8,16c-0.6,0-1-0.4-1-1s0.4-1,1-1s1,0.4,1,1S8.6,16,8,16z"/><path d="M16,13c-1.1,0-2,0.9-2,2s0.9,2,2,2s2-0.9,2-2S17.1,13,16,13z M16,16c-0.6,0-1-0.4-1-1s0.4-1,1-1s1,0.4,1,1S16.6,16,16,16z"/></g></svg>