<?xml version="1.0" ?><!DOCTYPE svg  PUBLIC '-//W3C//DTD SVG 1.1//EN'  'http://www.w3.org/Graphics/SVG/1.1/DTD/svg11.dtd'><svg enable-background="new 0 0 24 24" height="24px" id="Layer_1" version="1.1" viewBox="0 0 24 24" width="24px" xml:space="preserve" xmlns="http://www.w3.org/2000/svg" xmlns:xlink="http://www.w3.org/1999/xlink"><g><circle cx="8" cy="13" r="1"/><circle cx="12" cy="13" r="1"/><path d="M5,10h10V3H5V10z M6,4h8v5h-3.6L9.3,5l-1,0.3L9.4,9H6V4z"/><path d="M21.4,4.2l-0.8,0.6L23,8v8c0,0.6-0.4,1-1,1s-1-0.4-1-1v-4c0-1.7-1.3-3-3-3V1c0-0.6-0.4-1-1-1H3C2.4,0,2,0.4,2,1v21H1   c-0.6,0-1,0.4-1,1v1h20v-1c0-0.6-0.4-1-1-1h-1V10c1.1,0,2,0.9,2,2v4c0,1.1,0.9,2,2,2s2-0.9,2-2V7.7L21.4,4.2z M4,22V2h12v20H4z"/></g></svg>