<?xml version="1.0" encoding="UTF-8"?>
<svg width="262px" height="24px" viewBox="0 0 262 24" version="1.1" xmlns="http://www.w3.org/2000/svg" xmlns:xlink="http://www.w3.org/1999/xlink">
    <!-- Generator: Sketch 54.1 (76490) - https://sketchapp.com -->
    <title>Fichier 1</title>
    <desc>Created with Sketch.</desc>
    <g id="Home" stroke="none" stroke-width="1" fill="none" fill-rule="evenodd">
        <g id="Page-d'accueil" transform="translate(-60.000000, -28.000000)" fill-rule="nonzero">
            <g id="Fichier-1" transform="translate(60.000000, 28.000000)">
                <polygon id="Path" fill="#FFFFFF" points="4.21845574 4.47298787 4.21845574 9.77986035 17.1299435 9.77986035 17.1299435 13.0580669 4.21845574 13.0580669 4.21845574 21 -5.68434189e-14 21 -5.68434189e-14 1 20 1 20 4.47298787"></polygon>
                <path d="M23,11.5 C23,4.93889085 27.7829119,1 36,1 C44.2170881,1 49,4.93889085 49,11.5 C49,18.0611091 44.220866,22 36,22 C27.779134,22 23,18.0611091 23,11.5 Z M44.5722174,11.5 C44.5722174,6.89350053 40.7337983,4.64959378 36,4.64959378 C31.2662017,4.64959378 27.3106655,6.87495585 27.3106655,11.5 C27.3106655,16.1769693 31.2473118,18.3986224 36,18.3986224 C40.7526882,18.3986224 44.5722174,16.1769693 44.5722174,11.5 Z" id="Shape" fill="#FFFFFF"></path>
                <path d="M74.5712061,16.224977 L74.5712061,21 L70.5158332,21 L70.5158332,16.5261708 C70.5158332,14.2451791 68.7679529,13.6317723 65.5556325,13.6317723 L58.0699083,13.6317723 L58.0699083,20.9889807 L54,20.9889807 L54,1 L67.416162,1 C71.9802734,1 75,2.83654729 75,7.05325987 C75,10.43618 72.8451289,11.8282828 70.0143623,12.2837466 C73.0958643,12.5371901 74.5712061,13.3966942 74.5712061,16.224977 Z M67.416162,10.3737374 C69.4801869,10.3737374 70.9155563,9.21303949 70.9300917,7.29568411 C70.9300917,5.45913682 69.476553,4.56657484 67.416162,4.56657484 L58.0699083,4.56657484 L58.0699083,10.3737374 L67.416162,10.3737374 Z" id="Shape" fill="#FFFFFF"></path>
                <polygon id="Path" fill="#EC616E" points="85.2184557 4.47298787 85.2184557 9.77986035 98.13371 9.77986035 98.13371 13.0580669 85.2184557 13.0580669 85.2184557 21 81 21 81 1 101 1 101 4.47298787"></polygon>
                <polygon id="Path" fill="#EC616E" points="124 17.5755184 124 21 108.593156 21 108.593156 21 106 21 106 1 110.258555 1 110.258555 17.5755184"></polygon>
                <polygon id="Path" fill="#EC616E" points="147 1 138.092139 14.693495 138.092139 21 133.926458 21 133.926458 14.693495 125 1 129.835165 1 136.05765 10.9411981 142.175993 1.0183756"></polygon>
                <polygon id="Path" fill="#FFFFFF" points="216 1 207.654154 21 202.585589 21 196.542299 5.3476663 190.495332 21 185.441479 21 177 1 181.557295 1 188.023578 17.030871 194.166179 1 198.914741 1 205.057342 17.030871 211.523625 1"></polygon>
                <path d="M233.250236,16.446527 L222.708215,16.446527 L220.585458,21 L216,21 L225.654391,1 L230.262512,1 L240,21 L235.391879,21 L233.250236,16.446527 Z M231.81492,13.3814774 L227.958451,5.14920985 L224.117092,13.3814774 L231.81492,13.3814774 Z" id="Shape" fill="#FFFFFF"></path>
                <polygon id="Path" fill="#FFFFFF" points="262 1 253.084602 14.693495 253.084602 21 248.907953 21 248.907953 14.693495 240 1 244.839255 1 251.063283 10.9411981 257.190525 1.0183756"></polygon>
                <polygon id="Path" fill="#FFFFFF" points="171 24 166.774761 22.4356775 165.414279 4.75284578 153.188369 17.4058943 149 15.8565414 164.728507 0 168.946372 1.56058007"></polygon>
                <polygon id="Path" fill="#EC616E" points="157 19 159.5 24 162 20.8693878"></polygon>
            </g>
        </g>
    </g>
</svg>