<?xml version="1.0" encoding="UTF-8"?>
<svg width="26px" height="11px" viewBox="0 0 26 11" version="1.1" xmlns="http://www.w3.org/2000/svg" xmlns:xlink="http://www.w3.org/1999/xlink">
    <!-- Generator: Sketch 54.1 (76490) - https://sketchapp.com -->
    <title>Lit</title>
    <desc>Created with Sketch.</desc>
    <g id="Home" stroke="none" stroke-width="1" fill="none" fill-rule="evenodd">
        <g id="Page-d'accueil" transform="translate(-1077.000000, -1925.000000)" fill-rule="nonzero">
            <g id="Group-7" transform="translate(20.000000, 1605.000000)">
                <g id="Group" transform="translate(1048.000000, 0.000000)">
                    <g id="Group-6-Copy-5">
                        <g id="Lit" transform="translate(9.000000, 320.000000)">
                            <path d="M18,-3 L18,-3 C19.1045695,-3 20,-2.1045695 20,-1 L20,7 C20,8.1045695 19.1045695,9 18,9 L18,9 C16.8954305,9 16,8.1045695 16,7 L16,-1 C16,-2.1045695 16.8954305,-3 18,-3 Z" id="Rectangle" fill="#213361" transform="translate(18.000000, 3.000000) rotate(90.000000) translate(-18.000000, -3.000000) "></path>
                            <path d="M15.999998,2.99848828 L15.999998,2.99848828 C16.0000235,1.90063045 15.2815928,1.00830452 14.3909723,1 L6.13980985,1 C5.24454401,1 4.30267529,5 5.74491177,5 L14.3909723,5 C15.2825501,4.99168786 16.0013724,4.0975248 15.999998,2.99848828 L15.999998,2.99848828 Z" id="Path" fill="#213361"></path>
                            <circle id="Oval" fill="#213361" cx="4" cy="2" r="2"></circle>
                            <path d="M6,7 L26,7 L25.9999999,3.39934069 C26.000384,1.77092062 24.8130517,0.440340165 23.3265356,0.403330672 L7.5021139,0.000231141978 C7.10867166,-0.00707311888 6.72903805,0.15900009 6.44846412,0.461157143 C6.16789018,0.763314196 6.00989125,1.17623085 6.00994777,1.60718197 L6,7 Z" id="Path" fill="#EC616E"></path>
                            <rect id="Rectangle" fill="#EC616E" x="0" y="5" width="7" height="1" rx="0.5"></rect>
                            <path d="M2,8 L3,8 L3,10.6206631 C3,10.8301651 2.86601222,11 2.70072993,11 L2.29927007,11 C2.13398778,11 2,10.8301651 2,10.6206631 L2,8 Z" id="Path" fill="#213361"></path>
                            <path d="M23,8 L24,8 L24,10.6206631 C24,10.8301651 23.8660122,11 23.7007299,11 L23.2992701,11 C23.1339878,11 23,10.8301651 23,10.6206631 L23,8 Z" id="Path" fill="#213361"></path>
                            <rect id="Rectangle" fill="#213361" x="0" y="5" width="26" height="2" rx="1"></rect>
                        </g>
                    </g>
                </g>
            </g>
        </g>
    </g>
</svg>