<?xml version="1.0" encoding="UTF-8"?>
<svg width="26px" height="17px" viewBox="0 0 26 17" version="1.1" xmlns="http://www.w3.org/2000/svg" xmlns:xlink="http://www.w3.org/1999/xlink">
    <!-- Generator: Sketch 54.1 (76490) - https://sketchapp.com -->
    <title>Group 21</title>
    <desc>Created with Sketch.</desc>
    <g id="Home" stroke="none" stroke-width="1" fill="none" fill-rule="evenodd">
        <g id="Page-d'accueil" transform="translate(-1274.000000, -1919.000000)">
            <g id="Group-21" transform="translate(1274.000000, 1919.000000)">
                <path d="M25.025,11.5813 L25.025,12.9903 C25.025,13.7783 24.438,14.4173 23.713,14.4173 L1.23,14.4173 C0.551,14.4173 0,13.8183 0,13.0803 L0,11.7203 C0,10.3593 0.787,7.1143 1.656,5.7403 C2.493,4.4193 3.721,3.4333 5.218,3.4333 L11.013,3.1923 C11.799,3.1263 12.594,3.1433 13.369,3.3053 C15.271,3.7003 17.019,4.7693 18.324,6.3683 L19.158,7.3913 C19.405,7.6943 19.761,7.8673 20.133,7.8673 C20.133,7.8673 24.219,8.5843 25.025,11.5813" id="Fill-1" fill="#213361"></path>
                <path d="M7.3102,13.7815 C7.3102,15.4355 5.9692,16.7775 4.3142,16.7775 C2.6602,16.7775 1.3182,15.4355 1.3182,13.7815 C1.3182,12.1275 2.6602,10.7865 4.3142,10.7865 C5.9692,10.7865 7.3102,12.1275 7.3102,13.7815" id="Fill-3" fill="#EC616E"></path>
                <path d="M5.9137,13.7815 C5.9137,14.6655 5.1977,15.3815 4.3147,15.3815 C3.4307,15.3815 2.7147,14.6655 2.7147,13.7815 C2.7147,12.8985 3.4307,12.1815 4.3147,12.1815 C5.1977,12.1815 5.9137,12.8985 5.9137,13.7815" id="Fill-5" fill="#213361"></path>
                <path d="M22.9025,13.7815 C22.9025,15.4355 21.5615,16.7775 19.9065,16.7775 C18.2525,16.7775 16.9105,15.4355 16.9105,13.7815 C16.9105,12.1275 18.2525,10.7865 19.9065,10.7865 C21.5615,10.7865 22.9025,12.1275 22.9025,13.7815" id="Fill-7" fill="#EC616E"></path>
                <path d="M3.1364,5.8215 C2.6144,6.7845 2.3034,7.9125 2.3034,7.9125 L8.3844,7.9125 L8.3844,4.4005 C8.3844,4.4005 5.9014,4.4705 5.2494,4.5055 C4.4704,4.5465 3.5424,5.0715 3.1364,5.8215" id="Fill-9" fill="#EC616E"></path>
                <path d="M17.7697,7.9123 L9.8317,7.9123 L9.8317,4.3903 C9.8317,4.3903 12.2377,4.2503 13.3857,4.5203 C16.4157,5.2333 17.7697,7.9123 17.7697,7.9123" id="Fill-11" fill="#EC616E"></path>
                <path d="M12.2628,10.0686 L10.5168,10.0686 C10.4148,10.0686 10.3328,9.9866 10.3328,9.8846 L10.3328,9.6336 C10.3328,9.5326 10.4148,9.4506 10.5168,9.4506 L12.2628,9.4506 C12.3638,9.4506 12.4468,9.5326 12.4468,9.6336 L12.4468,9.8846 C12.4468,9.9866 12.3638,10.0686 12.2628,10.0686" id="Fill-13" fill="#EC616E"></path>
                <path d="M21.506,13.7815 C21.506,14.6655 20.79,15.3815 19.907,15.3815 C19.024,15.3815 18.307,14.6655 18.307,13.7815 C18.307,12.8985 19.024,12.1815 19.907,12.1815 C20.79,12.1815 21.506,12.8985 21.506,13.7815" id="Fill-15" fill="#213361"></path>
                <path d="M24.7257,2.1868 L22.9517,1.9148 C22.8837,1.9048 22.8247,1.8608 22.7957,1.7978 L22.0097,0.1188 C21.9347,-0.0402 21.7107,-0.0402 21.6367,0.1188 L20.8507,1.7978 C20.8207,1.8608 20.7627,1.9048 20.6947,1.9148 L18.9197,2.1868 C18.7537,2.2118 18.6857,2.4148 18.8037,2.5358 L20.1007,3.8678 C20.1457,3.9148 20.1667,3.9808 20.1567,4.0448 L19.8517,5.9158 C19.8247,6.0858 20.0047,6.2128 20.1557,6.1298 L21.7237,5.2608 C21.7857,5.2268 21.8607,5.2268 21.9227,5.2608 L23.4907,6.1298 C23.6417,6.2128 23.8217,6.0858 23.7937,5.9158 L23.4897,4.0448 C23.4787,3.9808 23.4997,3.9148 23.5457,3.8678 L24.8427,2.5358 C24.9597,2.4148 24.8917,2.2118 24.7257,2.1868" id="Fill-17" fill="#213361"></path>
                <path d="M22.9513,1.9143 C22.8833,1.9043 22.8253,1.8603 22.7963,1.7983 L22.0093,0.1183 C21.9353,-0.0397 21.7103,-0.0397 21.6363,0.1183 L20.8503,1.7983 C20.8213,1.8603 20.7623,1.9043 20.6943,1.9143 L18.9203,2.1863 C18.7543,2.2123 18.6863,2.4143 18.8033,2.5353 L20.1003,3.8673 C20.1463,3.9143 20.1673,3.9803 20.1563,4.0453 L19.8523,5.9163 C19.8243,6.0863 20.0043,6.2133 20.1553,6.1303 L21.7233,5.2613 C21.7853,5.2273 21.8603,5.2273 21.9223,5.2613 L23.4903,6.1303 C23.6413,6.2133 23.8213,6.0863 23.7943,5.9163 L23.4893,4.0453 C23.4793,3.9803 23.4993,3.9143 23.5453,3.8673 L22.9513,1.9143 Z" id="Fill-19" fill="#EC616E"></path>
            </g>
        </g>
    </g>
</svg>