<?xml version="1.0" encoding="UTF-8"?>
<svg width="25px" height="17px" viewBox="0 0 25 17" version="1.1" xmlns="http://www.w3.org/2000/svg" xmlns:xlink="http://www.w3.org/1999/xlink">
    <!-- Generator: Sketch 54.1 (76490) - https://sketchapp.com -->
    <title>Fichier 18</title>
    <desc>Created with Sketch.</desc>
    <g id="Home" stroke="none" stroke-width="1" fill="none" fill-rule="evenodd">
        <g id="Page-d'accueil" transform="translate(-1146.000000, -1919.000000)" fill-rule="nonzero">
            <g id="Group-7" transform="translate(20.000000, 1605.000000)">
                <g id="Group" transform="translate(1048.000000, 0.000000)">
                    <g id="Group-6-Copy-5">
                        <g id="Fichier-18" transform="translate(78.000000, 314.000000)">
                            <circle id="Oval" fill="#213361" cx="12.5" cy="8.5" r="8.5"></circle>
                            <circle id="Oval" fill="#EC616E" cx="12.5" cy="8.5" r="6.5"></circle>
                            <rect id="Rectangle" fill="#213361" transform="translate(24.000000, 13.000000) rotate(180.000000) translate(-24.000000, -13.000000) " x="23" y="9" width="2" height="8" rx="1"></rect>
                            <path d="M24.0011403,10.9999967 L24.0011403,10.9999967 C24.2664492,10.9999976 24.5208587,10.8679305 24.7082464,10.632929 C24.8956342,10.3979276 25.0006031,10.0793013 24.9999974,9.74733822 L24.9999974,1.25265851 C24.9999988,0.561947125 24.5531625,0.00157337446 24.0011403,0 L23.0000026,9.74733822 C22.9993953,10.0797963 23.1046769,10.3988566 23.2925585,10.6339406 C23.48044,10.8690245 23.7354363,11.0007566 24.0011403,10.9999967 Z" id="Path" fill="#EC616E"></path>
                            <rect id="Rectangle" fill="#213361" x="0" y="4" width="2" height="13" rx="1"></rect>
                            <path d="M2,0 L1.99999817,4.56894776 C2.00047128,4.92111961 1.90922662,5.26091089 1.74406709,5.52202444 L1.70677912,5.58022759 C1.51319683,5.85837357 1.24804169,6.01003928 0.973799409,5.99948362 C0.699557126,5.98892797 0.440484167,5.81708457 0.257632924,5.52444957 C0.0910354944,5.26345996 -0.000919652131,4.92241009 6.93498205e-06,4.56894776 L0,0 L0.274582003,0 L0.274582003,2.77192531 C0.274582004,2.88443181 0.338324234,2.97563635 0.41695426,2.97563635 C0.495584286,2.97563635 0.559326516,2.88443181 0.559326517,2.77192531 L0.559326517,0 L0.847460848,0 L0.847460848,2.77192531 C0.84746085,2.88443181 0.91120308,2.97563635 0.989833105,2.97563635 C1.06846313,2.97563635 1.13220536,2.88443181 1.13220536,2.77192531 L1.13220536,0 L1.41525497,0 L1.41525497,2.77192531 C1.41525497,2.88443181 1.4789972,2.97563636 1.55762723,2.97563636 C1.63625725,2.97563636 1.69999948,2.88443181 1.69999948,2.77192531 L1.69999948,0 L2,0 Z" id="Path" fill="#EC616E"></path>
                        </g>
                    </g>
                </g>
            </g>
        </g>
    </g>
</svg>