<?xml version="1.0" encoding="UTF-8"?>
<svg width="12px" height="14px" viewBox="0 0 12 14" version="1.1" xmlns="http://www.w3.org/2000/svg" xmlns:xlink="http://www.w3.org/1999/xlink">
    <!-- Generator: Sketch 54.1 (76490) - https://sketchapp.com -->
    <title>Shape</title>
    <desc>Created with Sketch.</desc>
    <g id="Home" stroke="none" stroke-width="1" fill="none" fill-rule="evenodd" opacity="0.396763393">
        <g id="Annonce" transform="translate(-154.000000, -1141.000000)" fill="#2F3B59" fill-rule="nonzero">
            <g id="noun_Access_894649" transform="translate(154.000000, 1141.000000)">
                <g id="Group">
                    <path d="M3.93850529,0 C2.90226006,0 2.05487233,0.785301933 2.05487233,1.74562322 C2.05487233,2.6219164 2.76012883,3.35027055 3.67094379,3.47140982 L5.14788328,8.33138357 C5.14834562,8.3329705 5.14742093,8.33475579 5.14788328,8.33634272 C5.22352826,8.59552016 5.34646682,8.80677231 5.52246938,8.96119649 C5.69953995,9.11654109 5.9355607,9.20419518 6.16461698,9.20419518 L9.2522767,9.20419518 C9.41825302,9.20419518 9.49718751,9.22653916 9.56264804,9.27362337 C9.62810857,9.32070759 9.70352769,9.41733577 9.77669724,9.62076436 C9.77846122,9.62243562 9.78024508,9.62408877 9.78204847,9.62572351 L11.3232027,13.751742 C11.3519601,13.8710978 11.4521494,13.9645276 11.5807595,13.9919222 C11.7093697,14.0193168 11.8435232,13.9758033 11.9256284,13.8800618 C12.0077336,13.7843204 12.0231854,13.6533817 11.9653503,13.5434575 L10.4241961,9.41743892 L10.4295473,9.41743892 C10.3314775,9.14477258 10.1957455,8.92404646 9.98539521,8.77274853 C9.77504495,8.62146647 9.51043425,8.5694231 9.2522767,8.5694231 L6.16461698,8.5694231 C6.09548046,8.5694231 6.05234509,8.55172883 5.99337762,8.4999949 C5.93441015,8.44826098 5.86345301,8.3476258 5.8114358,8.16773139 C5.81144973,8.16607836 5.81144973,8.16442526 5.8114358,8.16277223 L4.97129269,5.39556269 L10.9593191,5.39556269 C11.0828292,5.39718145 11.1977121,5.33704455 11.2599769,5.23817957 C11.3222417,5.1393146 11.3222417,5.01703871 11.2599769,4.91817373 C11.1977121,4.81930875 11.0828292,4.75917185 10.9593191,4.76079061 L4.77864841,4.76079061 L4.37730615,3.44165488 C5.20341911,3.25709743 5.82213826,2.56589761 5.82213826,1.74562322 C5.82213826,0.785301933 4.97475052,0 3.93850529,0 Z M3.93850529,0.634772081 C4.60457212,0.634772081 5.13718082,1.12835816 5.13718082,1.74562322 C5.13718082,2.36288829 4.60457212,2.85647437 3.93850529,2.85647437 C3.27243846,2.85647437 2.73982977,2.36288829 2.73982977,1.74562322 C2.73982977,1.12835816 3.27243846,0.634772081 3.93850529,0.634772081 Z M3.23214293,6.09976297 C3.21404923,6.10174482 3.19615502,6.10506145 3.17863063,6.10968128 C1.33861524,6.56535242 0,8.16128052 0,9.99766028 C0,12.1849897 1.92071845,13.9649858 4.28098401,13.9649858 C6.51655993,13.9649858 8.36894205,12.3758815 8.5566168,10.3448013 C8.58932147,10.2236937 8.54238577,10.0960664 8.43668159,10.018674 C8.33097741,9.94128166 8.18613679,9.92849799 8.06656902,9.98600783 C7.94700125,10.0435177 7.87491322,10.1606399 7.88236182,10.2852914 C7.72481253,11.9903527 6.16634324,13.3302137 4.28098401,13.3302137 C2.29089685,13.3302137 0.684957442,11.8419271 0.684957442,9.99766028 C0.684957442,8.44673752 1.81690818,7.10424218 3.34986999,6.72461674 C3.52942061,6.68851183 3.64625064,6.52755093 3.61464911,6.35982111 C3.58304757,6.1920913 3.41427214,6.07734433 3.23214293,6.09976297 Z" id="Shape"></path>
                </g>
            </g>
        </g>
    </g>
</svg>