<?xml version="1.0" encoding="UTF-8"?>
<svg width="13px" height="12px" viewBox="0 0 13 12" version="1.1" xmlns="http://www.w3.org/2000/svg" xmlns:xlink="http://www.w3.org/1999/xlink">
    <!-- Generator: Sketch 54.1 (76490) - https://sketchapp.com -->
    <title>Path</title>
    <desc>Created with Sketch.</desc>
    <g id="Home" stroke="none" stroke-width="1" fill="none" fill-rule="evenodd">
        <g id="Page-d'accueil" transform="translate(-64.000000, -1964.000000)" fill="#FFCD0A" fill-rule="nonzero">
            <g id="Group-7" transform="translate(20.000000, 1605.000000)">
                <g id="Group-6" transform="translate(34.000000, 8.000000)">
                    <g id="noun_Star_2513171" transform="translate(10.000000, 351.000000)">
                        <path d="M10.3573224,7.54722222 C10.2793967,7.62170139 10.2534214,7.72100694 10.2534214,7.8203125 L10.8248766,10.9484375 C10.8768271,11.2463542 10.7469509,11.5690972 10.4871985,11.7428819 C10.2274462,11.9166667 9.88976814,11.9414931 9.57806532,11.8173611 L6.64286379,10.3526042 C6.53896285,10.3029514 6.43506191,10.3029514 6.33116097,10.3526042 L3.39595944,11.8173611 C3.26608327,11.8918403 3.13620709,11.9166667 3.00633092,11.9166667 C2.82450428,11.9166667 2.66865287,11.8670139 2.51280146,11.7677083 C2.25304911,11.5939236 2.12317294,11.2711806 2.17512341,10.9732639 L2.74657857,7.84513889 C2.77255381,7.74583333 2.72060334,7.64652778 2.64267763,7.57204861 L0.25295603,5.33767361 C0.0191789166,5.11423611 -0.0587467878,4.79149306 0.0451541514,4.49357639 C0.149055091,4.19565972 0.408807439,3.99704861 0.720510256,3.94739583 L3.99338984,3.47569444 C4.09729078,3.45086806 4.20119172,3.40121528 4.25314219,3.30190972 L5.73373057,0.446875 C5.88958198,0.173784722 6.17530956,0 6.48701238,0 C6.82469044,0 7.11041802,0.173784722 7.24029419,0.446875 L7.24029419,0.446875 L8.72088258,3.30190972 C8.77283305,3.40121528 8.85075875,3.45086806 8.98063492,3.47569444 L12.2535145,3.92256944 C12.5911926,3.97222222 12.8509449,4.17083333 12.9548458,4.46875 C13.0587468,4.76666667 12.9808211,5.08940972 12.747044,5.31284722 L10.3573224,7.54722222 Z" id="Path"></path>
                    </g>
                </g>
            </g>
        </g>
    </g>
</svg>