<?xml version="1.0" encoding="UTF-8"?>
<svg width="12px" height="11px" viewBox="0 0 12 11" version="1.1" xmlns="http://www.w3.org/2000/svg" xmlns:xlink="http://www.w3.org/1999/xlink">
    <!-- Generator: Sketch 54.1 (76490) - https://sketchapp.com -->
    <title>Path Copy 3</title>
    <desc>Created with Sketch.</desc>
    <g id="Home" stroke="none" stroke-width="1" fill="none" fill-rule="evenodd">
        <g id="Aérodrome" transform="translate(-235.000000, -706.000000)" fill="#EDEDED" fill-rule="nonzero">
            <g id="Group-6" transform="translate(178.000000, 706.000000)">
                <path d="M66.5606053,6.96666667 C66.4886738,7.03541667 66.4646967,7.12708333 66.4646967,7.21875 L66.9921938,10.10625 C67.0401481,10.38125 66.9202624,10.6791667 66.680491,10.8395833 C66.4407196,11 66.1290167,11.0229167 65.8412911,10.9083333 L63.1318743,9.55625 C63.0359657,9.51041667 62.9400572,9.51041667 62.8441486,9.55625 L60.1347318,10.9083333 C60.0148461,10.9770833 59.8949604,11 59.7750747,11 C59.6072347,11 59.4633719,10.9541667 59.319509,10.8625 C59.0797376,10.7020833 58.9598519,10.4041667 59.0078062,10.1291667 L59.5353033,7.24166667 C59.5592804,7.15 59.5113262,7.05833333 59.4393947,6.98958333 L57.2334979,4.92708333 C57.0177036,4.72083333 56.9457722,4.42291667 57.0416808,4.14791667 C57.1375893,3.87291667 57.3773607,3.68958333 57.6650864,3.64375 L60.686206,3.20833333 C60.7821146,3.18541667 60.8780231,3.13958333 60.9259774,3.04791667 L62.2926744,0.4125 C62.4365372,0.160416667 62.7002858,0 62.9880114,0 C63.2997142,0 63.5634628,0.160416667 63.6833485,0.4125 L63.6833485,0.4125 L65.0500455,3.04791667 C65.0979997,3.13958333 65.1699312,3.18541667 65.2898169,3.20833333 L68.3109365,3.62083333 C68.6226393,3.66666667 68.8624107,3.85 68.9583192,4.125 C69.0542278,4.4 68.9822964,4.69791667 68.7665021,4.90416667 L66.5606053,6.96666667 Z" id="Path-Copy-3"></path>
            </g>
        </g>
    </g>
</svg>