<svg viewBox="0 0 704.17 147.91" xmlns="http://www.w3.org/2000/svg"><path d="m11.2 12.29v14.44h34.28v8.92h-34.28v21.61h-11.2v-54.42h53.1v9.45z" fill="#213361"/><path d="m61.77 30.05c0-17.69 12.66-28.31 34.41-28.31s34.41 10.62 34.41 28.31-12.65 28.31-34.41 28.31-34.41-10.62-34.41-28.31zm57.1 0c0-12.42-10.16-18.47-22.69-18.47s-23 6-23 18.47c0 12.61 10.42 18.6 23 18.6s22.69-5.99 22.69-18.6z" fill="#213361"/><path d="m202.32 44.29v13h-11.16v-12.18c0-6.21-4.81-7.88-13.65-7.88h-20.6v20.03h-11.2v-54.42h36.92c12.56 0 20.87 5 20.87 16.48 0 9.21-5.93 13-13.72 14.24 8.48.69 12.54 3.03 12.54 10.73zm-19.69-15.93c5.68 0 9.63-3.16 9.67-8.38 0-5-4-7.43-9.67-7.43h-25.72v15.81z" fill="#213361"/><path d="m230.6 12.29v14.44h34.29v8.92h-34.29v21.61h-11.2v-54.42h53.1v9.45z" fill="#ec616e"/><path d="m333.28 48v9.33h-40.52-6.82v-54.49h11.2v45.16z" fill="#ec616e"/><path d="m394.75 2.84-23.95 37.26v17.16h-11.2v-17.16l-24-37.26h13l16.73 27.05 16.45-27z" fill="#ec616e"/><path d="m581.69 2.84-22.69 54.42h-13.78l-16.43-42.59-16.44 42.59h-13.74l-22.95-54.42h12.39l17.58 43.62 16.7-43.62h12.91l16.7 43.62 17.58-43.62z" fill="#213361"/><path d="m627.91 44.87h-27.91l-5.62 12.39h-12.14l25.56-54.42h12.2l25.78 54.42h-12.2zm-3.8-8.34-10.21-22.4-10.17 22.4z" fill="#213361"/><path d="m704.17 2.84-23.95 37.26v17.16h-11.22v-17.16l-23.93-37.26h13l16.72 27.05 16.46-27z" fill="#213361"/><path d="m460.46 64.13-11.46-4.18-3.69-47.25-33.16 33.81-11.36-4.14 42.66-42.37 11.44 4.17z" fill="#213361"/><path d="m422.8 51.53 6.52 12.25 6.52-7.67z" fill="#ec616e"/><g fill="#213361"><path d="m67.53 96.24a4.86 4.86 0 0 0 -6.71.26 5.13 5.13 0 0 0 0 7.11 4.73 4.73 0 0 0 3.5 1.46 4.62 4.62 0 0 0 3-.95 3.38 3.38 0 0 0 1.26-2.58h-3.8v-1.54h5.84c0 4.48-2.38 6.76-6.3 6.76a6.72 6.72 0 1 1 4.5-11.7z"/><path d="m84.24 95.13h-6.08v4.18h5.31v1.69h-5.31v4h6.28v1.65h-8.08v-13.17h7.88zm-1.56-6.23-2.3 2.93h-1.68l1.87-2.93z"/><path d="m100.15 106.57h-1.72l-6.07-9.86v9.86h-1.8v-13.09h1.78l6 9.78v-9.78h1.8z"/><path d="m115 95.13h-6.09v4.18h5.32v1.69h-5.32v4h6.28v1.65h-8.07v-13.17h7.88zm-1.57-6.23-2.3 2.93h-1.73l1.88-2.93z"/><path d="m130.41 106.57h-2.19l-3.43-4.9h-1.7v4.9h-1.82v-13.09h5.12a3.59 3.59 0 0 1 3 1.2 4.75 4.75 0 0 1 .12 5.64 3.38 3.38 0 0 1 -2.61 1.29zm-7.32-11.44v4.87h3.16a2.46 2.46 0 0 0 .08-4.89z"/><path d="m143.76 103.25h-5.64l-1.29 3.32h-1.92l5.09-13.09h1.93l5 13.09h-1.89zm-5-1.6h4.4l-2.2-5.81z"/><path d="m150 93.48h9.89v1.67h-4v11.42h-1.89v-11.42h-4z"/><path d="m165.54 93.48h7.88v1.65h-6.08v4.18h5.31v1.69h-5.31v4h6.28v1.65h-8.08z"/><path d="m187.53 93.48h1.82v8.59a4.47 4.47 0 0 1 -1.43 3.4 5.26 5.26 0 0 1 -6.9 0 4.42 4.42 0 0 1 -1.41-3.4v-8.59h1.82v8.59a2.77 2.77 0 0 0 .89 2.14 3.2 3.2 0 0 0 4.32 0 2.77 2.77 0 0 0 .89-2.14z"/><path d="m205.27 106.57h-2.18l-3.44-4.9h-1.65v4.9h-1.82v-13.09h5.12a3.61 3.61 0 0 1 3 1.2 4.44 4.44 0 0 1 1 2.9 4.38 4.38 0 0 1 -.87 2.74 3.37 3.37 0 0 1 -2.6 1.29zm-7.27-11.44v4.87h3.17a2.46 2.46 0 0 0 .07-4.89z"/><path d="m219.69 106.57v-13.09h5.16a5.49 5.49 0 0 1 4.36 1.86 6.83 6.83 0 0 1 1.63 4.71 6.93 6.93 0 0 1 -1.61 4.7 5.54 5.54 0 0 1 -4.38 1.82zm1.8-1.65h3.36a3.77 3.77 0 0 0 3.09-1.35 6.2 6.2 0 0 0 0-7 3.69 3.69 0 0 0 -3.09-1.39h-3.36z"/><path d="m236.12 97.58a6.51 6.51 0 0 0 1.21-4h1.61a6.55 6.55 0 0 1 -1.8 4.37z"/><path d="m251.28 103.25h-5.64l-1.29 3.32h-1.91l5.06-13.09h1.93l5 13.09h-1.89zm-5-1.6h4.41l-2.21-5.81z"/><path d="m259.71 93.48 3 10.11 3-10.11h1.85l-4 13.09h-1.72l-4-13.09z"/><path d="m273.26 93.48h7.88v1.65h-6.09v4.18h5.32v1.69h-5.32v4h6.28v1.65h-8.07z"/><path d="m297 106.57h-1.72l-6.06-9.86v9.86h-1.8v-13.09h1.78l6 9.78v-9.78h1.8z"/><path d="m302.69 93.48h9.89v1.67h-4v11.42h-1.81v-11.42h-4z"/><path d="m326 93.48h1.82v8.59a4.47 4.47 0 0 1 -1.43 3.4 5.26 5.26 0 0 1 -6.9 0 4.42 4.42 0 0 1 -1.41-3.4v-8.59h1.82v8.59a2.8 2.8 0 0 0 .88 2.14 3.21 3.21 0 0 0 4.33 0 2.77 2.77 0 0 0 .89-2.14z"/><path d="m343.75 106.57h-2.18l-3.44-4.9h-1.7v4.9h-1.82v-13.09h5.12a3.61 3.61 0 0 1 3 1.2 4.44 4.44 0 0 1 1 2.9 4.38 4.38 0 0 1 -.87 2.74 3.37 3.37 0 0 1 -2.6 1.29zm-7.32-11.44v4.87h3.17a2.46 2.46 0 0 0 .07-4.89z"/><path d="m349.86 93.48h7.88v1.65h-6.08v4.18h5.34v1.69h-5.31v4h6.27v1.65h-8.07z"/><path d="m364.84 102.79a2.17 2.17 0 0 0 .83 1.61 2.92 2.92 0 0 0 2 .71 2.42 2.42 0 0 0 2.69-1.92c.1-1.29-.87-2-2.26-2.34l-1.72-.42q-3.24-.83-3.24-3.42a3.23 3.23 0 0 1 1.27-2.64 4.59 4.59 0 0 1 3-1 4.53 4.53 0 0 1 3.07 1.06 3.47 3.47 0 0 1 1.22 2.78h-1.7a2.24 2.24 0 0 0 -2.56-2.21 2.92 2.92 0 0 0 -1.75.55 1.7 1.7 0 0 0 -.69 1.45c0 .91.64 1.51 1.89 1.82l1.74.42c2.53.62 3.81 2.05 3.56 4.1a3.64 3.64 0 0 1 -1.37 2.45 4.71 4.71 0 0 1 -3.08 1 4.85 4.85 0 0 1 -3.32-1.18 3.65 3.65 0 0 1 -1.33-2.79z"/><path d="m395.66 106.57h-2.19l-3.44-4.9h-1.7v4.9h-1.81v-13.09h5.12a3.59 3.59 0 0 1 2.95 1.2 4.75 4.75 0 0 1 .12 5.64 3.38 3.38 0 0 1 -2.61 1.29zm-7.33-11.44v4.87h3.17a2.46 2.46 0 0 0 .08-4.89z"/><path d="m409.65 95.13h-6.09v4.18h5.31v1.69h-5.31v4h6.28v1.65h-8.07v-13.17h7.88zm-1.57-6.23-2.3 2.93h-1.68l1.9-2.93z"/><path d="m416.74 102.79a2.21 2.21 0 0 0 .83 1.61 2.94 2.94 0 0 0 2 .71 2.43 2.43 0 0 0 2.69-1.92c.09-1.29-.87-2-2.26-2.34l-1.72-.42q-3.26-.83-3.25-3.42a3.24 3.24 0 0 1 1.28-2.64 5 5 0 0 1 6.1 0 3.5 3.5 0 0 1 1.22 2.78h-1.8a2.23 2.23 0 0 0 -2.48-2.15 2.93 2.93 0 0 0 -1.76.55 1.71 1.71 0 0 0 -.73 1.43c0 .91.63 1.51 1.89 1.82l1.74.42c2.53.62 3.8 2.05 3.55 4.1a3.6 3.6 0 0 1 -1.37 2.45 4.67 4.67 0 0 1 -3.07 1 4.85 4.85 0 0 1 -3.32-1.18 3.66 3.66 0 0 1 -1.34-2.79z"/><path d="m430.11 93.48h7.89v1.65h-6.09v4.18h5.31v1.69h-5.31v4h6.28v1.65h-8.08z"/><path d="m453.46 106.57h-2.19l-3.44-4.9h-1.7v4.9h-1.81v-13.09h5.12a3.59 3.59 0 0 1 2.95 1.2 4.75 4.75 0 0 1 .12 5.64 3.38 3.38 0 0 1 -2.61 1.29zm-7.33-11.44v4.87h3.17a2.46 2.46 0 0 0 .08-4.89z"/><path d="m460 93.48 3 10.11 3-10.11h1.85l-4 13.09h-1.72l-4-13.09z"/><path d="m481.4 95.13h-6.09v4.18h5.32v1.69h-5.32v4h6.28v1.65h-8.07v-13.17h7.88zm-1.57-6.23-2.29 2.93h-1.68l1.87-2.93z"/><path d="m502.68 103.25h-5.68l-1.3 3.32h-1.91l5.06-13.09h1.93l5 13.09h-1.78zm-5-1.6h4.41l-2.2-5.81z"/><path d="m518.77 93.48h1.82v8.59a4.44 4.44 0 0 1 -1.43 3.4 5.26 5.26 0 0 1 -6.9 0 4.46 4.46 0 0 1 -1.41-3.4v-8.59h1.82v8.59a2.77 2.77 0 0 0 .89 2.14 3.2 3.2 0 0 0 4.32 0 2.77 2.77 0 0 0 .89-2.14z"/><path d="m532.57 99.54 4.66 7h-2.17l-3.57-5.54-3.57 5.57h-2.15l4.64-7-4.14-6.06h2.17l3 4.62 3.07-4.62h2.16z"/><path d="m550.85 93.48h5.32a3.6 3.6 0 0 1 3 1.2 4.68 4.68 0 0 1 0 5.81 3.65 3.65 0 0 1 -3 1.18h-3.5v4.9h-1.82zm1.82 1.65v4.87h3.38a2.46 2.46 0 0 0 .1-4.89z"/><path d="m565.85 93.48h1.8v13.09h-1.8z"/><path d="m574.57 93.48h1.79v11.44h5.43v1.65h-7.22z"/><path d="m588 95.29a6.74 6.74 0 1 1 9.56 9.51 6.74 6.74 0 0 1 -9.56-9.51zm1.27 1.21a5.16 5.16 0 0 0 0 7.11 5 5 0 0 0 7 0 5.13 5.13 0 0 0 0-7.11 4.94 4.94 0 0 0 -7 0z"/><path d="m603.84 93.48h9.89v1.67h-4v11.42h-1.82v-11.42h-4z"/><path d="m619.38 93.48h7.88v1.65h-6.08v4.18h5.31v1.69h-5.31v4h6.27v1.65h-8.07z"/><path d="m634.36 102.79a2.14 2.14 0 0 0 .83 1.61 2.92 2.92 0 0 0 2 .71 2.42 2.42 0 0 0 2.69-1.92c.1-1.29-.87-2-2.26-2.34l-1.72-.42c-2.16-.55-3.25-1.69-3.25-3.42a3.24 3.24 0 0 1 1.35-2.64 4.59 4.59 0 0 1 3-1 4.53 4.53 0 0 1 3.07 1.06 3.47 3.47 0 0 1 1.22 2.78h-1.8a2.23 2.23 0 0 0 -2.49-2.21 2.92 2.92 0 0 0 -1.75.55 1.7 1.7 0 0 0 -.74 1.43c0 .91.64 1.51 1.89 1.82l1.74.42c2.53.62 3.81 2.05 3.56 4.1a3.64 3.64 0 0 1 -1.37 2.45 4.71 4.71 0 0 1 -3.08 1 4.85 4.85 0 0 1 -3.32-1.18 3.65 3.65 0 0 1 -1.33-2.79z"/><path d="m211.52 144 4.7-12h1.24l4.69 12h-1.25l-1.25-3.15h-5.65l-1.22 3.15zm5.32-10.4-2.41 6.17h4.82z"/><path d="m223.75 135.84 2.81 6.77 2.8-6.77h1.26l-3.44 8.16h-1.25l-3.42-8.13z"/><path d="m233.07 132a.84.84 0 1 1 -.91.83.86.86 0 0 1 .91-.83zm.56 3.87h-1.17v8.13h1.17z"/><path d="m235.94 139.88a4.32 4.32 0 1 1 4.32 4.27 4.13 4.13 0 0 1 -4.32-4.27zm7.47 0a3.15 3.15 0 0 0 -6.3 0 3.15 3.15 0 0 0 6.3 0z"/><path d="m248.07 144h-1.18v-8.13h1.18v1.34a3.08 3.08 0 0 1 2.75-1.52c2 0 3.2 1.36 3.19 3.57v4.74h-1.19v-4.74c0-1.49-.73-2.42-2-2.42a2.56 2.56 0 0 0 -2.75 2.72z"/><path d="m280.28 144h-1.17v-5.42h-6.7v5.42h-1.17v-12h1.17v5.5h6.7v-5.5h1.17z"/><path d="m282.74 139.88a4 4 0 0 1 4.18-4.22 3.93 3.93 0 0 1 4.06 4.22 4.78 4.78 0 0 1 0 .54h-7a2.89 2.89 0 0 0 3 2.58 2.92 2.92 0 0 0 2.59-1.41l1.19.26a4.21 4.21 0 0 1 -8-2zm7-.54a2.78 2.78 0 0 0 -2.86-2.53 2.88 2.88 0 0 0 -3 2.53zm-2.43-5h-1.21l1.24-2.33h1.46z"/><path d="m294.35 144h-1.17v-12.57h1.17z"/><path d="m297.82 132a.84.84 0 1 1 -.9.83.86.86 0 0 1 .9-.83zm.57 3.87h-1.17v8.13h1.17z"/><path d="m308 143a4.36 4.36 0 0 1 -3 1.12 4.25 4.25 0 1 1 0-8.49 4.43 4.43 0 0 1 3 1.1l-.84.82a3.24 3.24 0 0 0 -2.14-.77 3 3 0 0 0 -3.15 3.07 3.05 3.05 0 0 0 3.13 3.15 3.16 3.16 0 0 0 2.14-.79z"/><path d="m309.35 139.88a4.33 4.33 0 0 1 8.65 0 4.33 4.33 0 0 1 -8.65 0zm7.48 0a3.16 3.16 0 0 0 -6.31 0 3.16 3.16 0 0 0 6.31 0z"/><path d="m320.3 135.84h1.19v1.41a3.67 3.67 0 0 1 3.12-1.59 4.12 4.12 0 0 1 4.23 4.29 4.05 4.05 0 0 1 -4.23 4.2 3.6 3.6 0 0 1 -3.12-1.5v5.26h-1.19zm4.31 1a3 3 0 0 0 -3.12 3.12 3 3 0 0 0 3.12 3 2.91 2.91 0 0 0 3-3 3 3 0 0 0 -3-3.13z"/><path d="m331.6 144v-7.09h-1.48v-1h1.48v-3.05h1.19v3.05h1.75v1h-1.75v7.09z"/><path d="m340 144.15a4.06 4.06 0 0 1 -4.18-4.27 4 4 0 0 1 4.18-4.22 3.93 3.93 0 0 1 4 4.22 4.78 4.78 0 0 1 0 .54h-7a3 3 0 0 0 5.56 1.17l1.19.26a4.05 4.05 0 0 1 -3.75 2.3zm2.85-4.81a2.78 2.78 0 0 0 -2.85-2.53 2.88 2.88 0 0 0 -3 2.53zm-3.42-5h1.2l-1.27-2.34h-1.45z"/><path d="m351 137.11a3 3 0 0 0 -1.2-.28c-1.68 0-2.37 1.95-2.37 4.11v3h-1.19v-8.13h1.19v1.84a2.34 2.34 0 0 1 2.37-2 2.85 2.85 0 0 1 1.35.31z"/><path d="m352.08 139.88a4 4 0 0 1 4.18-4.22 3.93 3.93 0 0 1 4.06 4.22 4.78 4.78 0 0 1 0 .54h-7a2.89 2.89 0 0 0 3 2.58 2.92 2.92 0 0 0 2.59-1.41l1.19.26a4.21 4.21 0 0 1 -8-2zm7-.54a2.78 2.78 0 0 0 -2.86-2.53 2.88 2.88 0 0 0 -3 2.53z"/><path d="m381.79 132c2.48 0 3.44 1.83 3.44 3.67s-1 3.65-3.44 3.65h-3.61v4.68h-1.18v-12zm-3.61 1.15v5h3.52a2.52 2.52 0 0 0 .09-5z"/><path d="m388.47 144h-1.17v-12.57h1.17z"/><path d="m399.31 144h-1.18v-1.39a3.66 3.66 0 0 1 -3.12 1.57 4.1 4.1 0 0 1 -4.23-4.27 4.06 4.06 0 0 1 4.23-4.22 3.62 3.62 0 0 1 3.12 1.52v-1.34h1.18zm-4.3-1a3 3 0 0 0 3.12-3.1 3 3 0 0 0 -3.12-3 2.92 2.92 0 0 0 -3.05 3 3 3 0 0 0 3.04 3.1z"/><path d="m403.37 144h-1.19v-8.13h1.19v1.34a3.07 3.07 0 0 1 2.75-1.52c2 0 3.2 1.36 3.19 3.57v4.74h-1.19v-4.74c0-1.49-.73-2.42-2-2.42a2.56 2.56 0 0 0 -2.75 2.72z"/><path d="m411.5 139.88a4 4 0 0 1 4.18-4.22 3.93 3.93 0 0 1 4.06 4.22 4.78 4.78 0 0 1 0 .54h-7a2.89 2.89 0 0 0 3 2.58 2.92 2.92 0 0 0 2.59-1.41l1.19.26a4.21 4.21 0 0 1 -8-2zm7-.54a2.78 2.78 0 0 0 -2.86-2.53 2.88 2.88 0 0 0 -3 2.53z"/><path d="m427.77 135.84h1.23v8.16h-1.18v-1.34a3.1 3.1 0 0 1 -2.75 1.52c-2 0-3.21-1.36-3.19-3.57v-4.74h1.12v4.74c0 1.49.72 2.42 2 2.42a2.56 2.56 0 0 0 2.75-2.72z"/><path d="m436.59 137.11a3.09 3.09 0 0 0 -1.21-.28c-1.68 0-2.37 1.95-2.37 4.11v3h-1.19v-8.13h1.18v1.84c.41-1.39 1.17-2 2.37-2a2.85 2.85 0 0 1 1.35.31z"/><path d="m459.9 139.91v-7.91h1.17v7.94a4.32 4.32 0 0 1 -8.64 0v-7.94h1.17v7.94a3.15 3.15 0 0 0 6.3 0z"/><path d="m465.66 132v10.85h5.17v1.15h-6.34v-12z"/><path d="m484.35 132h1.17l1.48 12h-1.15l-1.23-10-4.31 8.65h-1.17l-4.32-8.65-1.24 10h-1.15l1.49-12h1.17l4.64 9.36z"/></g><path d="m262.74 131.43v15.27" fill="none" stroke="#ec616e" stroke-linecap="round" stroke-miterlimit="10" stroke-width=".62"/><path d="m369.27 131.43v15.27" fill="none" stroke="#ec616e" stroke-linecap="round" stroke-miterlimit="10" stroke-width=".62"/><path d="m444.98 131.43v15.27" fill="none" stroke="#ec616e" stroke-linecap="round" stroke-miterlimit="10" stroke-width=".62"/></svg>